<?xml version="1.0" encoding="UTF-8"?><svg id="a" xmlns="http://www.w3.org/2000/svg" viewBox="0 0 1215.3115 403.6612"><defs><style>.b{fill:#231f20;}</style></defs><g><polygon class="b" points="308.5693 76.0718 308.3711 73.9243 307.8936 71.7764 307.2578 69.7095 306.4219 67.6812 305.3486 65.772 304.1152 63.9824 302.7227 62.312 301.1729 60.8008 299.4639 59.4497 297.6338 58.2564 196.7393 0 250.5869 79.0528 251.6592 80.8032 252.5752 82.6323 253.3301 84.5816 253.8477 86.5694 254.2051 88.5972 254.4033 90.6655 254.3643 92.7339 254.166 94.7617 253.7285 96.7896 253.1318 98.7774 192.8018 268.4981 191.9658 270.5264 190.9326 272.4737 189.6992 274.3428 188.2676 276.0117 186.6768 277.5635 184.9678 278.9561 183.0986 280.1485 165.2813 290.4473 163.4121 291.4024 161.4629 292.1963 159.4746 292.793 157.4072 293.1905 155.3399 293.3906 153.2315 293.3906 151.1631 293.1905 149.1348 292.793 147.1065 292.1963 145.1582 291.4024 143.3291 290.4473 125.4717 280.1485 123.6426 278.9561 121.8926 277.5635 120.3018 276.0117 118.9102 274.3428 117.6768 272.4737 116.6035 270.5264 115.7686 268.4981 55.4385 98.7774 54.8418 96.7896 54.4443 94.7617 54.2061 92.7339 54.2061 90.6655 54.3652 88.5972 54.7227 86.5694 55.2793 84.5816 55.9951 82.6323 56.9102 80.8032 57.9834 79.0528 111.8311 0 10.9365 58.2564 9.1074 59.4497 7.4375 60.8008 5.8457 62.312 4.4541 63.9824 3.2217 65.772 2.1875 67.6812 1.3125 69.7095 .6768 71.7764 .2383 73.9243 0 76.0718 0 78.2588 .1992 80.4053 .6367 82.5528 1.2334 84.6216 77.8281 300.1104 78.6631 302.1387 79.6973 304.086 80.9697 305.916 82.3623 307.626 83.9522 309.1778 85.6631 310.5684 87.5322 311.7627 143.3291 343.9717 145.1582 344.9278 147.1065 345.7217 149.1348 346.3174 151.1631 346.7158 153.2315 346.9141 155.3399 346.9141 157.4072 346.7158 159.4746 346.3174 161.4629 345.7217 163.4121 344.9278 165.2813 343.9717 221.0781 311.7627 222.9072 310.5684 224.6563 309.1778 226.207 307.626 227.6387 305.916 228.8731 304.086 229.9063 302.1387 230.7813 300.1104 307.336 84.6216 307.9736 82.5528 308.3711 80.4053 308.6094 78.2588 308.5693 76.0718"/><polygon class="b" points="83.1973 100.687 81.5274 102.0781 79.9365 103.5894 78.544 105.2598 77.3115 107.0493 76.2774 108.9575 75.4024 110.9463 74.7666 113.0137 74.3291 115.1612 74.0899 117.3076 74.0899 119.4956 74.2891 121.6826 74.7266 123.7901 75.3223 125.8975 123.6826 261.9356 124.5176 263.9629 125.5518 265.9131 126.8242 267.7412 128.2158 269.4512 129.8067 271.003 131.5166 272.3926 133.3867 273.5879 143.3291 279.3125 145.1582 280.2676 147.1065 281.0625 149.1348 281.6192 151.1631 282.0176 153.2315 282.2149 155.3399 282.2149 157.4072 282.0176 159.4746 281.6192 161.4629 281.0625 163.4121 280.2676 165.2813 279.3125 175.1836 273.5879 177.0527 272.3926 178.8037 271.003 180.3535 269.4512 181.7852 267.7412 183.0186 265.9131 184.0518 263.9629 184.9268 261.9356 233.2461 125.8975 233.8838 123.7901 234.2813 121.6826 234.5195 119.4956 234.4805 117.3076 234.2813 115.1612 233.8037 113.0137 233.168 110.9463 232.333 108.9575 231.2588 107.0493 230.0264 105.2598 228.6328 103.5894 227.082 102.0781 225.3721 100.687 223.543 99.5337 165.2813 65.8906 163.4121 64.8975 161.4629 64.1411 159.4746 63.5449 157.4072 63.148 155.3399 62.9488 153.2315 62.9488 151.1631 63.148 149.1348 63.5449 147.1065 64.1411 145.1582 64.8975 143.3291 65.8906 85.0274 99.5337 83.1973 100.687"/><polygon class="b" points="261.125 243.7217 260.7266 245.3535 260.4893 246.9834 260.3701 248.6524 260.3701 250.3233 260.4893 251.9961 260.7266 253.625 261.125 255.2549 261.6026 256.8457 266.9317 271.8379 285.2266 261.2608 285.7422 260.9414 286.2988 260.6231 286.8164 260.2666 287.332 259.8682 287.8106 259.4697 288.2881 259.0723 288.7647 258.6758 289.2422 258.2383 289.6797 257.7598 290.1182 257.2832 290.5147 256.8067 290.9121 256.3281 291.3106 255.8125 291.668 255.294 292.0264 254.7783 292.3438 254.2608 292.6611 253.7041 292.9805 253.1465 293.2588 252.5918 293.4971 251.9961 293.7754 251.3975 293.9746 250.7998 294.1738 250.2041 294.3721 249.6074 294.5303 249.0117 294.6904 248.376 294.8086 247.7774 294.9287 247.1426 295.0488 246.5069 295.0879 245.9082 295.168 245.2735 295.168 244.6377 295.207 244 295.207 147.6499 261.6026 242.1309 261.125 243.7217"/><polygon class="b" points="46.9678 256.8457 47.4844 255.2549 47.8428 253.625 48.1211 251.9961 48.2402 250.3233 48.2402 248.6524 48.1211 246.9834 47.8428 245.3535 47.4844 243.7217 46.9678 242.1309 13.4024 147.6499 13.4024 244 13.4424 244.9942 13.4824 245.9893 13.6406 246.9834 13.8008 247.9365 13.999 248.9307 14.2774 249.8858 14.5957 250.7998 14.9531 251.7559 15.3906 252.6699 15.8281 253.5449 16.3447 254.4199 16.8623 255.2549 17.459 256.0518 18.0557 256.8067 18.7315 257.5615 19.4072 258.2774 20.1631 258.9541 20.919 259.5899 21.7139 260.1856 22.5488 260.7432 23.3848 261.2608 41.6387 271.8379 46.9678 256.8457"/><polygon class="b" points="282.044 343.4961 281.4463 341.4278 253.8877 263.8848 233.168 322.1397 240.4053 342.4199 241.002 344.4092 241.3994 346.4375 241.6377 348.4658 241.6377 350.5322 241.4795 352.6016 241.1211 354.6299 240.5645 356.6162 239.8486 358.5274 238.9346 360.3965 237.8594 362.1455 209.544 403.6612 271.7051 367.792 273.5322 366.5977 275.2432 365.2461 276.794 363.7364 278.2266 362.0655 279.459 360.2764 280.4932 358.3682 281.3281 356.3399 282.0039 354.2705 282.4414 352.1641 282.6807 349.9776 282.6807 347.7891 282.4815 345.6436 282.044 343.4961"/><polygon class="b" points="69.6758 360.3965 68.7608 358.5274 68.0059 356.6162 67.4483 354.6299 67.0908 352.6016 66.9317 350.5322 66.9717 348.4658 67.1709 346.4375 67.6074 344.4092 68.2041 342.4199 75.4024 322.1397 54.7227 263.8848 27.1621 341.4278 26.5254 343.4961 26.1279 345.6436 25.9297 347.7891 25.9297 349.9776 26.168 352.1641 26.6055 354.2705 27.2422 356.3399 28.1172 358.3682 29.1504 360.2764 30.3838 362.0655 31.7754 363.7364 33.3272 365.2461 35.0361 366.5977 36.8662 367.792 99.0264 403.6612 70.749 362.1455 69.6758 360.3965"/></g><g><path class="b" d="M540.3882,145.7539h-142.3911c-12.9942,0-19.4912,5.9561-19.4912,17.8672v153.7608c0,.7236,.3593,1.083,1.083,1.083h30.3193c.7207,0,1.082-.3594,1.082-1.083v-69.3008h116.9449v69.3008c0,.7236,.3593,1.083,1.083,1.083h30.3198c.7207,0,1.083-.3594,1.083-1.083V172.8252c0-9.2041-.7236-15.1601-2.166-17.8672-2.5273-6.1347-8.4829-9.2041-17.8667-9.2041Zm-12.4531,70.3838h-116.9449v-38.4404h116.9449v38.4404Z"/><path class="b" d="M777.2559,145.7539h-29.7774c-.6318,0-.9941,.3623-1.083,1.083v130.4805c-67.3164-86.084-101.7851-129.9385-103.4092-131.5635h-44.9375c-.6328,0-.9941,.3623-1.083,1.083v170.545c0,.7236,.3594,1.083,1.083,1.083h29.7774c.7217,0,1.083-.3594,1.083-1.083V186.9014c67.3144,86.085,101.7851,129.9394,103.4101,131.5635h44.9366c.7217,0,1.083-.3594,1.083-1.083V146.8369c0-.6298-.3613-.9912-1.083-1.083Z"/><path class="b" d="M995.7168,145.7539h-179.208c-.6328,0-.9941,.3623-1.083,1.083v29.7784c0,.7226,.3594,1.082,1.083,1.082h71.4658v139.6846c0,.7236,.3604,1.083,1.083,1.083h29.7784c.7207,0,1.082-.3594,1.082-1.083V177.6973h75.7988c.7207,0,1.082-.3594,1.082-1.082v-29.7784c0-.6298-.3613-.9912-1.082-1.083Z"/><path class="b" d="M1214.1758,145.7539h-164.5889l-3.79,.542c-7.9414,2.9776-11.9102,8.9336-11.9102,17.8662v66.0528c0,3.0683,.3594,5.414,1.0821,7.0381,2.8867,7.2207,8.1211,10.8281,15.7011,10.8281h132.6455v37.8994h-147.8056c-.6309,0-.9942,.3613-1.0821,1.082v30.3194c0,.7236,.3594,1.083,1.0821,1.083h162.4238c2.5254,0,3.79-.1797,3.79-.541,7.5801,0,12.0909-5.4141,13.5352-16.2432v-68.7588c0-11.1885-6.4971-16.7842-19.4902-16.7842h-129.3985v-38.4404h147.8057c.7217,0,1.083-.3594,1.083-1.082v-29.7784c0-.6298-.3613-.9912-1.083-1.083Z"/><path class="b" d="M378.7432,122.8145h6.604c.1572,0,.2353-.0781,.2353-.2354v-15.0957h28.8931c2.1816,0,3.4004-1.2187,3.6562-3.6553v-14.977c0-.5498-.0791-.9824-.2363-1.2969-.5898-1.5722-1.8476-2.3584-3.7734-2.3584h-35.3789c-.1387,0-.2168,.0781-.2364,.2354v37.1479c0,.1573,.0782,.2354,.2364,.2354Zm6.8393-30.6616h25.4737v8.3735h-25.4737v-8.3735Z"/><path class="b" d="M456.9414,122.8145h6.604c.1572,0,.2354-.0781,.2354-.2354v-15.0957h25.4731v15.0957c0,.1573,.0781,.2354,.2354,.2354h6.6045c.1572,0,.2363-.0781,.2363-.2354v-14.2695c0-.9043-.2754-1.6904-.8262-2.3594-.4521-.8642-1.9062-1.2969-4.3633-1.2969v-.1181c1.8672,0,2.9287-.1172,3.1846-.3535,1.3359-.6875,2.0049-1.7881,2.0049-3.3018v-12.0288c0-.5498-.0791-.9824-.2363-1.2969-.5899-1.5722-1.8477-2.3584-3.7735-2.3584h-35.3789c-.1387,0-.2168,.0781-.2363,.2354v37.1479c0,.1573,.0781,.2354,.2363,.2354Zm6.8394-30.6616h25.4731v8.3735h-25.4731v-8.3735Z"/><path class="b" d="M535.1987,122.8145h6.604c.1573,0,.2354-.0781,.2354-.2354v-37.1479c0-.1367-.0781-.2158-.2354-.2354h-6.604c-.1386,0-.2168,.0781-.2363,.2354v37.1479c0,.1573,.0781,.2354,.2363,.2354Z"/><path class="b" d="M621.6821,122.8145c.1573,0,.2364-.0781,.2364-.2354v-37.1479c0-.1367-.0791-.2158-.2364-.2354h-6.4858c-.1377,0-.2168,.0781-.2353,.2354v28.4204c-14.6641-18.7495-22.1714-28.3023-22.5259-28.6558h-9.7871c-.1387,0-.2168,.0781-.2364,.2354v37.1479c0,.1573,.0782,.2354,.2364,.2354h6.4853c.1577,0,.2359-.0781,.2359-.2354v-28.4204c14.6626,18.7495,22.1713,28.3023,22.5258,28.6558h9.7871Z"/><path class="b" d="M660.8457,92.1529h15.5664v30.4262c0,.1573,.0781,.2354,.2364,.2354h6.4853c.1572,0,.2363-.0781,.2363-.2354v-30.4262h16.5088c.1572,0,.2363-.0782,.2363-.2364v-6.4853c0-.1367-.0791-.2158-.2363-.2354h-39.0332c-.1387,0-.2168,.0781-.2363,.2354v6.4853c0,.1582,.0781,.2364,.2363,.2364Z"/><path class="b" d="M778.1367,85.1958h-35.0244c-2.8301,0-4.2451,1.2969-4.2451,3.8906v30.0728c0,2.2012,1.2188,3.4199,3.6553,3.6553h35.6142c.1573,0,.2364-.0781,.2364-.2354v-6.6045c0-.1377-.0791-.2158-.2364-.2353h-32.3125v-8.2559h27.2422c.1572,0,.2363-.0781,.2363-.2353v-6.4864c0-.1367-.0791-.2158-.2363-.2353h-27.2422v-8.3735h32.3125c.1573,0,.2364-.0782,.2364-.2364v-6.4853c0-.1367-.0791-.2158-.2364-.2354Z"/><path class="b" d="M817.3623,122.8145h6.6035c.1573,0,.2354-.0781,.2354-.2354v-15.0957h25.4736v15.0957c0,.1573,.0781,.2354,.2354,.2354h6.6035c.1572,0,.2363-.0781,.2363-.2354v-14.2695c0-.9043-.2754-1.6904-.8262-2.3594-.4521-.8642-1.9052-1.2969-4.3623-1.2969v-.1181c1.8672,0,2.9287-.1172,3.1836-.3535,1.336-.6875,2.0049-1.7881,2.0049-3.3018v-12.0288c0-.5498-.0791-.9824-.2363-1.2969-.5899-1.5722-1.8477-2.3584-3.7725-2.3584h-35.3789c-.1387,0-.2168,.0781-.2363,.2354v37.1479c0,.1573,.0781,.2354,.2363,.2354Zm6.8389-30.6616h25.4736v8.3735h-25.4736v-8.3735Z"/><path class="b" d="M899.0391,107.4834h28.8935v8.2559h-32.1953c-.1377,0-.2158,.0781-.2353,.2353v6.6045c0,.1573,.0781,.2354,.2353,.2354h35.3789c.5508,0,.8262-.0391,.8262-.1182,1.6504,0,2.6328-1.1787,2.9473-3.5371v-14.9775c0-2.4366-1.4151-3.6553-4.2452-3.6553h-28.1855v-8.3735h32.1943c.1573,0,.2364-.0782,.2364-.2364v-6.4853c0-.1367-.0791-.2158-.2364-.2354h-35.8506l-.8251,.1172c-1.7295,.6494-2.5938,1.9463-2.5938,3.8916v14.3872c0,.669,.0781,1.1797,.2363,1.5332,.628,1.5723,1.7676,2.3584,3.419,2.3584Z"/><path class="b" d="M1053.667,107.2481v-6.4864c0-.1367-.0791-.2158-.2363-.2353h-27.124v-8.3735h32.3125c.1582,0,.2363-.0782,.2363-.2364v-6.4853c0-.1367-.0781-.2158-.2363-.2354h-35.379c-.5097,0-1.0605,.0781-1.6503,.2354-1.5723,.6299-2.3575,1.8867-2.3575,3.7734v33.3745c0,.1573,.0782,.2354,.2364,.2354h6.6035c.1562,0,.2344-.0781,.2344-.2354v-15.0957h27.124c.1572,0,.2363-.0781,.2363-.2353Z"/><path class="b" d="M1101.085,122.8145h33.1386c1.8868-.7266,2.8301-1.7881,2.8301-3.1836v-30.7798c0-2.1621-1.2187-3.3799-3.6552-3.6553h-32.4307c-2.3594,.3926-3.5391,1.4932-3.5391,3.3018v30.4253c0,.6689,.0781,1.1797,.2364,1.5332,.6289,1.5722,1.7695,2.3584,3.4199,2.3584Zm3.4199-30.6616h25.4746v23.5864h-25.4746v-23.5864Z"/><path class="b" d="M1213.3067,104.1817c1.3359-.6875,2.0048-1.7881,2.0048-3.3018v-12.0288c0-.5498-.0791-.9824-.2363-1.2969-.5889-1.5722-1.8467-2.3584-3.7725-2.3584h-35.3798c-.1387,0-.2168,.0781-.2364,.2354v37.1479c0,.1573,.0782,.2354,.2364,.2354h6.6045c.1572,0,.2353-.0781,.2353-.2354v-15.0957h25.4727v15.0957c0,.1573,.0781,.2354,.2363,.2354h6.6035c.1572,0,.2363-.0781,.2363-.2354v-14.2695c0-.9043-.2754-1.6904-.8252-2.3594-.4531-.8642-1.9062-1.2969-4.3642-1.2969v-.1181c1.8681,0,2.9287-.1172,3.1846-.3535Zm-5.0713-3.6553h-25.4727v-8.3735h25.4727v8.3735Z"/></g></svg>