<?xml version="1.0" encoding="UTF-8"?><svg id="a" xmlns="http://www.w3.org/2000/svg" viewBox="0 0 360 403.6582"><defs><style>.b{fill:#ed2024;}</style></defs><path class="b" d="M359.9902,119.8545l-.0996-2.1128-.0097-.2114-.0205-.21-.209-2.2143-.042-.4463-.086-.44-.4355-2.2217-.0596-.3027-.0801-.2978-.5712-2.1294-.0782-.2915-.0976-.2857-.7451-2.1816-.1329-.3897-.1689-.3764-.9082-2.0323-.1172-.2597-.1318-.2525-1.0518-2.0009-.1807-.3433-.2099-.3267-1.2168-1.8979-.1514-.2373-.167-.2271-1.29-1.7593-.1816-.2475-.1983-.2349-1.4639-1.7348-.2959-.3506-.33-.3194-1.6387-1.5825-.1572-.1518-.1651-.1446-1.6592-1.4531-.2871-.2519-.3076-.2261-1.8008-1.3252-.2402-.1768-.251-.1601-1.8076-1.1543-.1689-.1079-.1748-.1006L199.4326,5.1738l-.1504-.0874-.1552-.081-1.9131-1.0083-.295-.1553-.3056-.1333-2.0537-.8945-.3008-.1309-.3096-.1089-2.1123-.7422-.3242-.1137-.332-.0889-2.167-.5801-.3223-.0864-.3271-.062-2.2032-.418-.3056-.0581-.3086-.0366-2.2578-.2686-.42-.0498-.4218-.0102-2.2032-.0542-.2187-.0054-.2192,.0049-2.2481,.0542-.4238,.0102-.4214,.0503-2.2603,.2686-.31,.0366-.3072,.0586-2.2006,.418-.3267,.062-.3208,.0859-2.1675,.5801-.3315,.0884-.3237,.1137-2.1138,.7422-.3091,.1084-.3003,.1309-2.0825,.9062-.354,.1538-.3394,.1841-1.7993,.9741-.1079,.0586-.1064,.0611L19.3999,86.6831l-.1733,.1001-.1685,.1074-1.8091,1.1543-.25,.1597-.2392,.1758-1.8018,1.3242-.3096,.2275-.289,.253-1.6948,1.4843-.2232,.1953-.21,.2095-1.5537,1.5528-.2143,.2143-.1997,.2285-1.4824,1.6958-.251,.2866-.2256,.3072-1.355,1.8437-.2256,.3067-.1987,.3252-1.1636,1.9013-.1514,.2476-.1352,.2573-1.0278,1.9522-.1348,.2553-.1182,.2642-.9087,2.0317-.1674,.375-.1329,.3887-.7451,2.1807-.0971,.2846-.0782,.2906-.5727,2.1318-.0816,.3037-.06,.3091-.4204,2.1562-.064,.3277-.0395,.3315-.2632,2.2134-.0386,.3232-.0146,.3247-.1006,2.1788-.0098,.2075v163.5093l.0098,.2119,.1006,2.1396,.0151,.3233,.0386,.3212,.2622,2.1954,.0371,.3095,.0586,.3076,.4189,2.1993,.062,.3261,.086,.3204,.5805,2.165,.0874,.3262,.1114,.3173,.7397,2.1123,.1099,.3135,.1323,.3047,.895,2.0557,.1338,.3066,.1558,.2959,1.0405,1.9746,.1333,.253,.1489,.2441,1.1641,1.9053,.2012,.3291,.2285,.3105,1.3559,1.8438,.2271,.3086,.2524,.288,1.482,1.6924,.1953,.2237,.2094,.2089,1.5547,1.5557,.2149,.2149,.2285,.2002,1.6938,1.4804,.2827,.2471,.3018,.2226,1.7993,1.3252,.2407,.1778,.252,.1611,1.8115,1.1572,.1709,.1084,.1753,.1016,141.1167,81.4531,.0982,.0567,.1001,.0546,1.935,1.0528,.3501,.1904,.3662,.1582,2.0825,.9043,.2989,.1299,.3076,.1084,2.1138,.7412,.3217,.1123,.3296,.0889,2.1675,.5801,.3149,.0839,.3204,.0616,2.2612,.4326,.4175,.0801,.4233,.04,2.2017,.209,.2177,.0205,.2188,.0098,2.2476,.1035,.4184,.0195,.4185-.0195,2.1992-.1035,.2148-.0108,.2139-.0195,2.1982-.209,.4219-.04,.4151-.0801,2.2646-.4326,.3223-.0616,.3164-.0839,2.167-.5801,.331-.0889,.3242-.1142,2.1104-.7413,.3105-.1084,.3018-.1318,2.0557-.8955,.3017-.1318,.292-.1534,1.915-1.0068,.1573-.083,.1543-.0889,141.167-81.5097,.1738-.1006,.1689-.1074,1.8096-1.1553,.2539-.1621,.2412-.1778,1.7989-1.3252,.3027-.2226,.2822-.2471,1.6592-1.4502,.1689-.1474,.1612-.1563,1.6386-1.583,.3311-.3193,.2969-.3516,1.4638-1.7363,.1944-.2305,.1787-.2432,1.291-1.7587,.1729-.2354,.1572-.2451,1.2148-1.9004,.2041-.3193,.1768-.335,1.0654-2.0234,.1533-.292,.1319-.3018,.8974-2.0566,.1367-.3125,.1124-.3223,.7373-2.1133,.1074-.3086,.0849-.3154,.5821-2.1621,.0879-.3272,.0634-.333,.4307-2.2656,.0781-.4111,.0401-.417,.208-2.1953,.0205-.21,.0097-.2099,.0997-2.0723,.0107-.2168V120.0659l-.0098-.2114Zm-8.9902,163.5176l-.0996,2.0722-.209,2.1953-.4307,2.2666-.582,2.1612-.7373,2.1133-.8975,2.0566-1.0654,2.0234-1.2148,1.9004-1.292,1.7588-1.4639,1.7363-1.6387,1.5831-1.6591,1.4502-1.7989,1.3251-1.8095,1.1553-141.167,81.5098-1.9151,1.0068-2.0556,.8955-2.1104,.7412-2.167,.5801-2.2646,.4326-2.1983,.209-2.1992,.1035-2.2475-.1035-2.2017-.209-2.2612-.4326-2.1675-.5801-2.1138-.7412-2.0825-.9043-1.9351-1.0527L23.8984,309.1719l-1.8115-1.1573-1.7988-1.3251-1.6939-1.4805-1.5546-1.5557-1.482-1.6924-1.3559-1.8437-1.1641-1.9053-1.0405-1.9746-.895-2.0557-.7398-2.1123-.5806-2.165-.4189-2.1992-.2622-2.1953-.1006-2.1397V120.2793l.1006-2.1787,.2632-2.2134,.4204-2.1562,.5727-2.1319,.7452-2.1806,.9086-2.0323,1.0279-1.9521,1.1635-1.9014,1.355-1.8437,1.4825-1.6958,1.5537-1.5528,1.6948-1.4839,1.8017-1.3242,1.8091-1.1543L165.1509,12.9458l1.7993-.9741,2.0825-.9063,2.1138-.7422,2.1675-.58,2.2006-.418,2.2603-.2686,2.248-.0542,2.2027,.0542,2.2578,.2686,2.2031,.418,2.167,.58,2.1123,.7422,2.0537,.8946,1.9131,1.0078,141.169,81.5102,1.8076,1.1543,1.8008,1.3252,1.6591,1.4531,1.6387,1.5826,1.4639,1.7348,1.29,1.7593,1.2168,1.898,1.0518,2.0009,.9092,2.0323,.7451,2.1816,.5713,2.1294,.4355,2.2217,.209,2.2143,.0996,2.1128v163.0938Z"/><path class="b" d="M345.1924,116.7471l-.3447-1.7652-.4737-1.7656-.6025-1.7656-.7324-1.6372-.8604-1.6353-.9932-1.5493-1.0751-1.4644-1.1631-1.3789-1.335-1.2919-1.3799-1.2061-1.4619-1.0762-1.5517-.9897L192.2529,17.8271l-1.6386-.8613-1.6788-.7314-1.7226-.6055-1.7656-.4727-1.8096-.3437-1.8076-.2144-1.8091-.0449-1.8525,.0449-1.8091,.2144-1.8086,.3437-1.7652,.4727-1.7231,.6055-1.6797,.7314-1.5932,.8613L26.7803,99.2217l-1.5513,.9897-1.4639,1.0762-1.3789,1.2061-1.2915,1.2919-1.2055,1.3789-1.0777,1.4644-.9477,1.5493-.8609,1.6353-.7319,1.6372-.604,1.7656-.4727,1.7656-.3447,1.7652-.2148,1.811-.0865,1.8501v162.832l.0865,1.8086,.2148,1.8076,.3447,1.8096,.4727,1.7656,.604,1.7207,.7319,1.6827,.8609,1.6337,.9477,1.5508,1.0777,1.4659,1.2055,1.3769,1.2915,1.293,1.3789,1.2041,1.4639,1.0781,1.5513,.9893,141.0093,81.3955,1.5932,.8623,1.6797,.7295,1.7231,.6054,1.7652,.4727,1.8086,.3428,1.8091,.1718,1.8525,.0869,1.8091-.0869,1.8076-.1718,1.8096-.3428,1.7656-.4727,1.7226-.6054,1.6788-.7295,1.6386-.8623,140.9659-81.3955,1.5517-.9893,1.4619-1.0781,1.3799-1.2041,1.335-1.293,1.1631-1.3769,1.0751-1.4659,.9932-1.5508,.8604-1.6337,.7324-1.6827,.6025-1.7207,.4737-1.7656,.3447-1.8096,.1719-1.8076,.0869-1.8086V120.4082l-.0869-1.8501-.1719-1.811Zm-173.312-15.4668l1.3545-.7354,1.4414-.5591,1.4995-.4404,1.5005-.2944,1.5298-.1465h1.5581l1.5278,.1465,1.5312,.2944,1.4707,.4404,1.4424,.5591,1.3809,.7354,43.0947,24.8833,1.3506,.853,1.2666,1.0293,1.1475,1.1172,1.0302,1.2358,.9102,1.3233,.7949,1.4116,.6172,1.4717,.4717,1.5283,.3506,1.5893,.1474,1.587,.0303,1.6181-.1777,1.6182-.292,1.5581-.4717,1.5591-35.7393,100.6176-.6464,1.501-.7657,1.4405-.9101,1.3535-1.0586,1.2636-1.1475,1.1475-1.2949,1.0303-1.3828,.8828-7.3252,4.2334-1.3809,.707-1.4424,.5879-1.4707,.4111-1.5312,.295-1.5278,.1464h-1.5581l-1.5298-.1464-1.5005-.295-1.4995-.4111-1.4414-.5879-1.3545-.707-7.3531-4.2334-1.3823-.8828-1.2637-1.0303-1.1787-1.1475-1.0288-1.2636-.9419-1.3535-.7631-1.4405-.6192-1.501-35.7676-100.6176-.4404-1.5591-.3242-1.5581-.1465-1.6182v-1.6181l.1758-1.587,.3232-1.5893,.4707-1.5283,.6475-1.4717,.7651-1.4116,.9112-1.3233,1.0302-1.2358,1.1763-1.1172,1.2344-1.0293,1.353-.853,43.1221-24.8833ZM82.5488,245.4004l-.6176-.4111-.5879-.4424-.5606-.4707-.5586-.501-.4995-.5283-.5-.5586-.4414-.5596-.4414-.5879-.3818-.6181-.3824-.6465-.3242-.6465-.3218-.6787-.2661-.7041-.2358-.6778-.2051-.705-.1465-.7364-.1191-.705-.1172-.7354-.0283-.7353-.0303-.7354v-71.2646l24.8262,69.8828,.3818,1.1757,.2651,1.2061,.2061,1.2061,.0874,1.2353v1.2354l-.0874,1.2353-.2061,1.2061-.2651,1.206-.3818,1.1758-3.9414,11.0889-13.5015-7.8233-.6177-.3818Zm10.5894,79.1748l-1.353-.8828-1.2657-.9971-1.1469-1.1172-1.0284-1.2363-.9121-1.3252-.7656-1.4102-.6475-1.5-.4702-1.5293-.3242-1.5595-.1758-1.6172v-1.6182l.1465-1.5879,.2944-1.5879,.4707-1.5293,20.3858-57.3535,15.2944,43.0879-5.3237,15-.4409,1.4717-.3233,1.499-.1474,1.501-.0293,1.5283,.1172,1.5293,.2646,1.501,.4107,1.4707,.561,1.4121,.6753,1.3809,.7939,1.2939,20.9146,30.707-45.9751-26.5312Zm181.812-13.1748l-.1768,1.6172-.3222,1.5595-.501,1.5293-.6162,1.5-.7656,1.4102-.9131,1.3252-1.0586,1.2363-1.1475,1.1172-1.2646,.9971-1.3526,.8828-45.9746,26.5312,20.9424-30.707,.7959-1.2939,.6768-1.3809,.5283-1.4121,.4101-1.4707,.2647-1.501,.1182-1.5293v-1.5283l-.1768-1.501-.292-1.499-.4424-1.4717-5.3535-15,15.3252-43.0879,20.3848,57.3535,.4404,1.5293,.3232,1.5879,.1475,1.5879v1.6182Zm9.2666-78.3838l-.0303,.4717v.4697l-.0586,.4707-.0273,.4424-.0899,.4707-.0888,.4678-.0889,.4433-.1172,.4707-.1162,.4395-.1484,.4433-.1475,.4405-.1474,.4394-.2051,.4424-.1768,.4424-.206,.4101-.2334,.4122-.2373,.4121-.2364,.3818-.2646,.3818-.2637,.3838-.2939,.3819-.295,.3535-.292,.3525-.3251,.3526-.3233,.3525-.3516,.3232-.3535,.295-.3535,.2949-.3515,.293-.3838,.2959-.3838,.2636-.4092,.2354-.3848,.2353-13.5293,7.8233-3.9423-11.0889-.3536-1.1758-.292-1.206-.1767-1.2061-.0889-1.2353v-1.2354l.0889-1.2353,.1767-1.2061,.292-1.2061,.3536-1.1757,24.8564-69.8828v71.2646Zm9.7363-121.001l-.2959,1.5884-.4697,1.5298-56.623,159.3828-.6465,1.501-.7657,1.4404-.9101,1.3535-1.0606,1.2647-1.1474,1.1474-1.293,1.0293-1.3535,.8828-41.2705,23.8243-1.3809,.705-1.4424,.5879-1.4707,.4395-1.5312,.2959-1.5278,.1474h-1.5581l-1.5298-.1474-1.5005-.2959-1.4995-.4395-1.4414-.5879-1.3545-.705-41.2676-23.8243-1.3833-.8828-1.2647-1.0293-1.1762-1.1474-1.0293-1.2647-.9414-1.3535-.7657-1.4404-.6181-1.501L66.7822,115.1338l-.4419-1.5298-.3232-1.5884-.1465-1.5879v-1.6172l.1763-1.5883,.3237-1.5889,.4702-1.5288,.648-1.4995,.7636-1.4131,.9126-1.3232,1.0298-1.2354,1.1758-1.1177,1.2358-1,1.3531-.8823,74.6259-43.0889-39.8276,58.4702-.7944,1.2959-.6778,1.3521-.5293,1.4419-.4101,1.4702-.2656,1.4995-.1187,1.5303v1.5298l.1768,1.4995,.2944,1.4995,.4399,1.4707,44.6231,125.5308,.6191,1.5019,.794,1.4395,.9111,1.3808,1.0288,1.2373,1.1778,1.1465,1.2944,1.0283,1.3525,.8848,13.2066,7.6162,1.3545,.7051,1.4414,.5889,1.4995,.4414,1.5005,.2929,1.5298,.1475h1.5581l1.5278-.1475,1.5312-.2929,1.4707-.4414,1.4424-.5889,1.3809-.7051,13.1777-7.6162,1.3848-.8848,1.2646-1.0283,1.1748-1.1465,1.0606-1.2373,.9111-1.3808,.7656-1.4395,.6163-1.5019,44.623-125.5308,.4414-1.4707,.3233-1.4995,.1474-1.4995,.0283-1.5298-.1474-1.5303-.2647-1.4995-.3808-1.4702-.5577-1.4419-.6777-1.3521-.7959-1.2959-39.8271-58.4702,74.6259,43.0889,1.3536,.8823,1.2646,1,1.1475,1.1177,1.0293,1.2354,.9111,1.3232,.793,1.4131,.6191,1.4995,.4707,1.5288,.3535,1.5889,.1475,1.5883,.0273,1.6172-.1748,1.5879Z"/></svg>