<?xml version="1.0" encoding="UTF-8"?><svg id="a" xmlns="http://www.w3.org/2000/svg" viewBox="0 0 308.6054 403.6562"><defs><style>.b{fill:#231f20;}</style></defs><polygon class="b" points="308.5654 76.0713 308.3662 73.9238 307.8896 71.7759 307.2539 69.709 306.4179 67.6811 305.3437 65.7715 304.1113 63.9819 302.7187 62.3115 301.1679 60.8003 299.459 59.4492 297.6298 58.2558 196.7353 0 250.584 79.0527 251.6562 80.8032 252.5722 82.6318 253.3271 84.5805 253.8427 86.5683 254.2021 88.5967 254.4004 90.6645 254.3613 92.7324 254.1631 94.7607 253.7256 96.7885 253.1269 98.7763 192.7988 268.4951 191.9638 270.5224 190.9297 272.4717 189.6963 274.3388 188.2646 276.0088 186.6738 277.5615 184.9658 278.9521 183.0966 280.1455 165.2793 290.4443 163.4101 291.3994 161.4609 292.1943 159.4716 292.79 157.4043 293.1885 155.3369 293.3877 153.2285 293.3877 151.1601 293.1885 149.1328 292.79 147.1045 292.1943 145.1552 291.3994 143.3261 290.4443 125.4697 280.1455 123.6406 278.9521 121.8916 277.5615 120.2998 276.0088 118.9082 274.3388 117.6748 272.4717 116.6015 270.5224 115.7666 268.4951 55.4365 98.7763 54.8408 96.7885 54.4423 94.7607 54.2041 92.7324 54.2041 90.6645 54.3632 88.5967 54.7216 86.5683 55.2783 84.5805 55.9941 82.6318 56.9082 80.8032 57.9824 79.0527 111.8291 0 10.9355 58.2558 9.1064 59.4492 7.4365 60.8003 5.8447 62.3115 4.4531 63.9819 3.2197 65.7715 2.1865 67.6811 1.3115 69.709 .6757 71.7759 .2382 73.9238 0 76.0713 0 78.2583 .1982 80.4048 .6357 82.5527 1.2324 84.6211 77.8271 300.1084 78.6621 302.1357 79.6963 304.083 80.9687 305.9131 82.3603 307.622 83.9511 309.1748 85.6611 310.5654 87.5312 311.7588 143.3261 343.9687 145.1552 344.9219 147.1045 345.7187 149.1328 346.3144 151.1601 346.7129 153.2285 346.9101 155.3369 346.9101 157.4043 346.7129 159.4716 346.3144 161.4609 345.7187 163.4101 344.9219 165.2793 343.9687 221.0752 311.7588 222.9033 310.5654 224.6523 309.1748 226.2041 307.622 227.6357 305.9131 228.8691 304.083 229.9033 302.1357 230.7773 300.1084 307.332 84.6211 307.9697 82.5527 308.3662 80.4048 308.6054 78.2583 308.5654 76.0713"/><polygon class="b" points="83.1953 100.6855 81.5254 102.0771 79.9345 103.5884 78.5429 105.2583 77.3105 107.0483 76.2763 108.9565 75.4013 110.9453 74.7646 113.0127 74.3271 115.1601 74.0888 117.3071 74.0888 119.4951 74.2881 121.6816 74.7256 123.789 75.3213 125.8965 123.6806 261.9326 124.5156 263.9599 125.5498 265.9092 126.8222 267.7373 128.2138 269.4482 129.8056 270.999 131.5146 272.3896 133.3838 273.583 143.3261 279.3095 145.1552 280.2646 147.1045 281.0595 149.1328 281.6162 151.1601 282.0146 153.2285 282.2119 155.3369 282.2119 157.4043 282.0146 159.4716 281.6162 161.4609 281.0595 163.4101 280.2646 165.2793 279.3095 175.1806 273.583 177.0498 272.3896 178.8007 270.999 180.3506 269.4482 181.7822 267.7373 183.0156 265.9092 184.0498 263.9599 184.9238 261.9326 233.2431 125.8965 233.8808 123.789 234.2763 121.6816 234.5156 119.4951 234.4765 117.3071 234.2763 115.1601 233.7998 113.0127 233.165 110.9453 232.3291 108.9565 231.2539 107.0483 230.0224 105.2583 228.6298 103.5884 227.0781 102.0771 225.3681 100.6855 223.54 99.5322 165.2793 65.8901 163.4101 64.8969 161.4609 64.1406 159.4716 63.5444 157.4043 63.1474 155.3369 62.9482 153.2285 62.9482 151.1601 63.1474 149.1328 63.5444 147.1045 64.1406 145.1552 64.8969 143.3261 65.8901 85.0254 99.5322 83.1953 100.6855"/><polygon class="b" points="261.122 243.7207 260.7236 245.3515 260.4863 246.9804 260.3672 248.6523 260.3672 250.3213 260.4863 251.9912 260.7236 253.622 261.122 255.2529 261.5986 256.8427 266.9277 271.8349 285.2216 261.2568 285.7373 260.9385 286.2959 260.6201 286.8134 260.2627 287.3291 259.8642 287.8047 259.4677 288.2832 259.0693 288.7597 258.6728 289.2363 258.2353 289.6738 257.7568 290.1132 257.2802 290.5097 256.8037 290.9082 256.3252 291.3056 255.8076 291.6631 255.292 292.0215 254.7744 292.3398 254.2588 292.6572 253.7002 292.9746 253.1435 293.2539 252.5888 293.4931 251.9912 293.7715 251.3935 293.9697 250.7978 294.1699 250.2021 294.3672 249.6064 294.5263 249.0088 294.6855 248.373 294.8047 247.7773 294.9248 247.1406 295.0439 246.5039 295.084 245.9082 295.164 245.2715 295.164 244.6347 295.2031 244 295.2031 147.6484 261.5986 242.1308 261.122 243.7207"/><polygon class="b" points="46.9658 256.8427 47.4834 255.2529 47.8408 253.622 48.1191 251.9912 48.2382 250.3213 48.2382 248.6523 48.1191 246.9804 47.8408 245.3515 47.4834 243.7207 46.9658 242.1308 13.4013 147.6484 13.4013 244 13.4414 244.9941 13.4814 245.9883 13.6396 246.9804 13.7988 247.9355 13.998 248.9287 14.2763 249.8838 14.5947 250.7978 14.9521 251.7529 15.3896 252.667 15.8271 253.542 16.3437 254.417 16.8613 255.2529 17.458 256.0478 18.0547 256.8037 18.7304 257.5595 19.4062 258.2744 20.1621 258.9502 20.9179 259.5869 21.7129 260.1826 22.5478 260.7392 23.3838 261.2568 41.6377 271.8349 46.9658 256.8427"/><polygon class="b" points="282.039 343.4902 281.4433 341.4238 253.8847 263.8818 233.165 322.1377 240.4023 342.416 240.998 344.4062 241.3965 346.4336 241.6338 348.4609 241.6338 350.5293 241.4746 352.5976 241.1181 354.625 240.5605 356.6133 239.8447 358.5215 238.9316 360.3906 237.8564 362.1406 209.54 403.6562 271.7011 367.7871 273.5293 366.5937 275.2392 365.2422 276.791 363.7324 278.2226 362.0625 279.4541 360.2715 280.4902 358.3633 281.3232 356.3359 282 354.2676 282.4375 352.1601 282.6767 349.9726 282.6767 347.7851 282.4765 345.6386 282.039 343.4902"/><polygon class="b" points="69.6738 360.3906 68.7597 358.5215 68.0039 356.6133 67.4472 354.625 67.0898 352.5976 66.9306 350.5293 66.9697 348.4609 67.1689 346.4336 67.6064 344.4062 68.2021 342.416 75.4013 322.1377 54.7216 263.8818 27.1611 341.4238 26.5254 343.4902 26.1269 345.6386 25.9287 347.7851 25.9287 349.9726 26.167 352.1601 26.6045 354.2676 27.2412 356.3359 28.1162 358.3633 29.1494 360.2715 30.3828 362.0625 31.7744 363.7324 33.3261 365.2422 35.0361 366.5937 36.8652 367.7871 99.0234 403.6562 70.748 362.1406 69.6738 360.3906"/></svg>