<?xml version="1.0" encoding="UTF-8"?><svg id="a" xmlns="http://www.w3.org/2000/svg" viewBox="0 0 1262.0078 403.6607"><defs><style>.b{fill:#ed2024;}.c{fill:#231f20;}</style></defs><g><path class="c" d="M587.0845,145.7544h-142.3911c-12.9942,0-19.4912,5.9561-19.4912,17.8672v153.7608c0,.7236,.3593,1.083,1.083,1.083h30.3193c.7207,0,1.082-.3594,1.082-1.083v-69.3008h116.9449v69.3008c0,.7236,.3593,1.083,1.083,1.083h30.3198c.7207,0,1.083-.3594,1.083-1.083V172.8257c0-9.2041-.7236-15.1601-2.166-17.8672-2.5273-6.1347-8.4829-9.2041-17.8667-9.2041Zm-12.4531,70.3838h-116.9449v-38.4404h116.9449v38.4404Z"/><path class="c" d="M823.9522,145.7544h-29.7774c-.6318,0-.9941,.3623-1.083,1.083v130.4805c-67.3164-86.084-101.7861-129.9385-103.4092-131.5635h-44.9375c-.6328,0-.9941,.3623-1.083,1.083v170.545c0,.7236,.3594,1.083,1.083,1.083h29.7779c.7207,0,1.082-.3594,1.082-1.083V186.9019c67.3149,86.085,101.7856,129.9394,103.4106,131.5635h44.9366c.7217,0,1.083-.3594,1.083-1.083V146.8374c0-.6298-.3613-.9912-1.083-1.083Z"/><path class="c" d="M1042.4131,145.7544h-179.208c-.6328,0-.9941,.3623-1.083,1.083v29.7784c0,.7226,.3594,1.082,1.083,1.082h71.4658v139.6846c0,.7236,.3604,1.083,1.083,1.083h29.7784c.7207,0,1.082-.3594,1.082-1.083V177.6978h75.7988c.7207,0,1.082-.3594,1.082-1.082v-29.7784c0-.6298-.3613-.9912-1.082-1.083Z"/><path class="c" d="M1260.8721,145.7544h-164.5879l-3.791,.542c-7.9414,2.9776-11.9102,8.9336-11.9102,17.8662v66.0528c0,3.0683,.3594,5.414,1.0821,7.0381,2.8867,7.2207,8.1211,10.8281,15.7011,10.8281h132.6455v37.8994h-147.8056c-.6309,0-.9942,.3613-1.0821,1.082v30.3194c0,.7236,.3594,1.083,1.0821,1.083h162.4238c2.5254,0,3.79-.1797,3.79-.541,7.5801,0,12.0909-5.4141,13.5352-16.2432v-68.7588c0-11.1885-6.4971-16.7842-19.4902-16.7842h-129.3985v-38.4404h147.8057c.7217,0,1.083-.3594,1.083-1.082v-29.7784c0-.6298-.3613-.9912-1.083-1.083Z"/><path class="c" d="M425.4395,122.815h6.604c.1572,0,.2353-.0781,.2353-.2354v-15.0957h28.8931c2.1816,0,3.4004-1.2187,3.6562-3.6553v-14.977c0-.5498-.0791-.9824-.2363-1.2969-.5898-1.5722-1.8476-2.3584-3.7734-2.3584h-35.3789c-.1387,0-.2168,.0781-.2364,.2354v37.1479c0,.1573,.0782,.2354,.2364,.2354Zm6.8393-30.6616h25.4737v8.3735h-25.4737v-8.3735Z"/><path class="c" d="M503.6377,122.815h6.604c.1572,0,.2354-.0781,.2354-.2354v-15.0957h25.4731v15.0957c0,.1573,.0781,.2354,.2354,.2354h6.6045c.1572,0,.2363-.0781,.2363-.2354v-14.2695c0-.9043-.2754-1.6904-.8262-2.3594-.4521-.8642-1.9062-1.2969-4.3633-1.2969v-.1181c1.8672,0,2.9287-.1172,3.1846-.3535,1.3359-.6875,2.0049-1.7881,2.0049-3.3018v-12.0288c0-.5498-.0791-.9824-.2363-1.2969-.5899-1.5722-1.8477-2.3584-3.7735-2.3584h-35.3789c-.1387,0-.2168,.0781-.2363,.2354v37.1479c0,.1573,.0781,.2354,.2363,.2354Zm6.8394-30.6616h25.4731v8.3735h-25.4731v-8.3735Z"/><path class="c" d="M581.895,122.815h6.604c.1573,0,.2354-.0781,.2354-.2354v-37.1479c0-.1367-.0781-.2158-.2354-.2354h-6.604c-.1386,0-.2168,.0781-.2363,.2354v37.1479c0,.1573,.0781,.2354,.2363,.2354Z"/><path class="c" d="M668.3784,122.815c.1573,0,.2364-.0781,.2364-.2354v-37.1479c0-.1367-.0791-.2158-.2364-.2354h-6.4858c-.1377,0-.2168,.0781-.2353,.2354v28.4204c-14.6641-18.7495-22.1714-28.3023-22.5259-28.6558h-9.7871c-.1387,0-.2168,.0781-.2364,.2354v37.1479c0,.1573,.0782,.2354,.2364,.2354h6.4853c.1577,0,.2359-.0781,.2359-.2354v-28.4204c14.6626,18.7495,22.1713,28.3023,22.5258,28.6558h9.7871Z"/><path class="c" d="M707.542,92.1534h15.5664v30.4262c0,.1573,.0781,.2354,.2364,.2354h6.4853c.1572,0,.2363-.0781,.2363-.2354v-30.4262h16.5088c.1572,0,.2363-.0782,.2363-.2364v-6.4853c0-.1367-.0791-.2158-.2363-.2354h-39.0332c-.1387,0-.2168,.0781-.2363,.2354v6.4853c0,.1582,.0781,.2364,.2363,.2364Z"/><path class="c" d="M824.833,85.1963h-35.0244c-2.8301,0-4.2451,1.2969-4.2451,3.8906v30.0728c0,2.2012,1.2188,3.4199,3.6553,3.6553h35.6142c.1573,0,.2364-.0781,.2364-.2354v-6.6045c0-.1377-.0791-.2158-.2364-.2353h-32.3125v-8.2559h27.2422c.1572,0,.2363-.0781,.2363-.2353v-6.4864c0-.1367-.0791-.2158-.2363-.2353h-27.2422v-8.3735h32.3125c.1573,0,.2364-.0782,.2364-.2364v-6.4853c0-.1367-.0791-.2158-.2364-.2354Z"/><path class="c" d="M864.0586,122.815h6.6035c.1573,0,.2354-.0781,.2354-.2354v-15.0957h25.4736v15.0957c0,.1573,.0781,.2354,.2354,.2354h6.6035c.1572,0,.2363-.0781,.2363-.2354v-14.2695c0-.9043-.2754-1.6904-.8262-2.3594-.4521-.8642-1.9052-1.2969-4.3623-1.2969v-.1181c1.8672,0,2.9287-.1172,3.1836-.3535,1.336-.6875,2.0049-1.7881,2.0049-3.3018v-12.0288c0-.5498-.0791-.9824-.2363-1.2969-.5899-1.5722-1.8477-2.3584-3.7725-2.3584h-35.3789c-.1387,0-.2168,.0781-.2363,.2354v37.1479c0,.1573,.0781,.2354,.2363,.2354Zm6.8389-30.6616h25.4736v8.3735h-25.4736v-8.3735Z"/><path class="c" d="M945.7354,107.4839h28.8935v8.2559h-32.1953c-.1377,0-.2158,.0781-.2353,.2353v6.6045c0,.1573,.0781,.2354,.2353,.2354h35.3789c.5508,0,.8262-.0391,.8262-.1182,1.6504,0,2.6328-1.1787,2.9473-3.5371v-14.9775c0-2.4366-1.4151-3.6553-4.2452-3.6553h-28.1855v-8.3735h32.1943c.1573,0,.2364-.0782,.2364-.2364v-6.4853c0-.1367-.0791-.2158-.2364-.2354h-35.8506l-.8251,.1172c-1.7295,.6494-2.5938,1.9463-2.5938,3.8916v14.3872c0,.669,.0781,1.1797,.2363,1.5332,.628,1.5723,1.7676,2.3584,3.419,2.3584Z"/><path class="c" d="M1100.3643,107.2486v-6.4864c0-.1367-.0801-.2158-.2363-.2353h-27.125v-8.3735h32.3125c.1582,0,.2363-.0782,.2363-.2364v-6.4853c0-.1367-.0781-.2158-.2363-.2354h-35.379c-.5097,0-1.0605,.0781-1.6503,.2354-1.5723,.6299-2.3575,1.8867-2.3575,3.7734v33.3745c0,.1573,.0782,.2354,.2364,.2354h6.6035c.1562,0,.2344-.0781,.2344-.2354v-15.0957h27.125c.1562,0,.2363-.0781,.2363-.2353Z"/><path class="c" d="M1147.7813,122.815h33.1386c1.8868-.7266,2.8301-1.7881,2.8301-3.1836v-30.7798c0-2.1621-1.2187-3.3799-3.6552-3.6553h-32.4307c-2.3594,.3926-3.5391,1.4932-3.5391,3.3018v30.4253c0,.6689,.0781,1.1797,.2364,1.5332,.6289,1.5722,1.7695,2.3584,3.4199,2.3584Zm3.4199-30.6616h25.4746v23.5864h-25.4746v-23.5864Z"/><path class="c" d="M1260.003,104.1822c1.3359-.6875,2.0048-1.7881,2.0048-3.3018v-12.0288c0-.5498-.0791-.9824-.2363-1.2969-.5889-1.5722-1.8467-2.3584-3.7725-2.3584h-35.3798c-.1387,0-.2168,.0781-.2364,.2354v37.1479c0,.1573,.0782,.2354,.2364,.2354h6.6045c.1572,0,.2353-.0781,.2353-.2354v-15.0957h25.4727v15.0957c0,.1573,.0781,.2354,.2363,.2354h6.6035c.1572,0,.2363-.0781,.2363-.2354v-14.2695c0-.9043-.2754-1.6904-.8252-2.3594-.4531-.8642-1.9062-1.2969-4.3642-1.2969v-.1181c1.8681,0,2.9287-.1172,3.1846-.3535Zm-5.0713-3.6553h-25.4727v-8.3735h25.4727v8.3735Z"/></g><g><path class="b" d="M359.9922,119.8555l-.0996-2.1128-.0098-.2114-.0205-.21-.209-2.2143-.0419-.4463-.086-.44-.4355-2.2216-.0596-.3028-.0801-.2978-.5713-2.1294-.0781-.2915-.0977-.2857-.7451-2.1816-.1328-.3897-.1689-.3764-.9082-2.0323-.1172-.2597-.1319-.2525-1.0517-2.0009-.1807-.3433-.2099-.3267-1.2168-1.8979-.1514-.2373-.167-.2271-1.29-1.7592-.1817-.2476-.1982-.2349-1.4639-1.7348-.2959-.3506-.3301-.3193-1.6386-1.5826-.1573-.1518-.165-.1446-1.6592-1.4531-.2871-.2519-.3076-.2261-1.8008-1.3252-.2402-.1772-.251-.1602-1.8076-1.1543-.169-.1079-.1748-.1006L199.4336,5.1739l-.1504-.0874-.1552-.0811-1.9131-1.0083-.295-.1553-.3056-.1333-2.0537-.8945-.3008-.1309-.3096-.1088-2.1123-.7422-.3242-.1138-.332-.0889-2.167-.58-.3223-.0865-.3271-.062-2.2032-.418-.3056-.0581-.3086-.0366-2.2578-.2685-.42-.0498-.4218-.0103-2.2032-.0542-.2187-.0054-.2192,.0049-2.2481,.0542-.4238,.0103-.4214,.0503-2.2603,.2685-.31,.0366-.3072,.0586-2.2006,.418-.3267,.062-.3208,.086-2.1675,.58-.3315,.0884-.3237,.1138-2.1138,.7422-.3091,.1084-.3003,.1308-2.0825,.9063-.354,.1538-.3394,.1841-1.7993,.9741-.1079,.0586-.1064,.061L19.3999,86.6836l-.1733,.1001-.1685,.1074-1.8091,1.1543-.25,.1602-.2392,.1758-1.8018,1.3242-.3095,.2275-.2891,.253-1.6948,1.4843-.2232,.1954-.2099,.2094-1.5537,1.5528-.2144,.2143-.1997,.2285-1.4824,1.6958-.251,.2867-.2256,.3071-1.355,1.8437-.2256,.3067-.1987,.3252-1.1636,1.9013-.1513,.2476-.1353,.2573-1.0278,1.9522-.1348,.2553-.1181,.2642-.9087,2.0317-.1675,.375-.1328,.3887-.7451,2.1807-.0972,.2846-.0781,.2906-.5728,2.1318-.0815,.3037-.0601,.3091-.4204,2.1562-.064,.3277-.0395,.3315-.2632,2.2134-.0386,.3233-.0146,.3247-.1006,2.1787-.0098,.2075v163.5107l.0098,.2119,.1006,2.1397,.0151,.3232,.0386,.3213,.2622,2.1953,.0371,.3096,.0586,.3076,.4189,2.1992,.0621,.3262,.0859,.3203,.5806,2.1651,.0874,.3261,.1113,.3174,.7397,2.1123,.1099,.3135,.1323,.3047,.895,2.0557,.1338,.3066,.1558,.2959,1.0405,1.9746,.1333,.2529,.1489,.2442,1.1641,1.9052,.2012,.3291,.2285,.3106,1.356,1.8437,.227,.3086,.2524,.2881,1.482,1.6924,.1953,.2236,.2095,.209,1.5547,1.5557,.2148,.2148,.2285,.2002,1.6939,1.4805,.2827,.2471,.3017,.2226,1.7993,1.3252,.2408,.1778,.2519,.1611,1.8115,1.1572,.1709,.1084,.1753,.1016,141.1177,81.4531,.0982,.0566,.1001,.0547,1.935,1.0528,.3501,.1904,.3662,.1582,2.0825,.9043,.2989,.1299,.3076,.1084,2.1138,.7412,.3217,.1123,.3296,.0889,2.1675,.58,.3149,.084,.3204,.0615,2.2612,.4327,.4175,.08,.4233,.0401,2.2017,.209,.2177,.0205,.2188,.0097,2.2476,.1035,.4184,.0196,.4185-.0196,2.1992-.1035,.2148-.0107,.2139-.0195,2.1982-.209,.4219-.0401,.4151-.08,2.2646-.4327,.3223-.0615,.3164-.084,2.167-.58,.331-.0889,.3242-.1143,2.1104-.7412,.3105-.1084,.3018-.1318,2.0557-.8955,.3017-.1319,.292-.1533,1.915-1.0068,.1573-.083,.1543-.0889,141.1679-81.5098,.1739-.1005,.1689-.1075,1.8096-1.1552,.2539-.1621,.2412-.1778,1.7988-1.3252,.3028-.2226,.2822-.2471,1.6592-1.4502,.1689-.1475,.1611-.1562,1.6387-1.583,.3311-.3194,.2968-.3515,1.4639-1.7363,.1944-.2305,.1787-.2432,1.291-1.7588,.1728-.2353,.1573-.2451,1.2148-1.9004,.2041-.3194,.1768-.3349,1.0654-2.0235,.1533-.292,.1318-.3017,.8975-2.0567,.1367-.3125,.1123-.3222,.7373-2.1133,.1075-.3086,.0849-.3154,.582-2.1621,.0879-.3272,.0635-.333,.4307-2.2656,.0781-.4111,.04-.417,.2081-2.1953,.0205-.21,.0097-.21,.0996-2.0722,.0108-.2168V120.0669l-.0098-.2114Zm-8.9902,163.519l-.0996,2.0723-.209,2.1953-.4307,2.2666-.582,2.1612-.7373,2.1132-.8975,2.0567-1.0654,2.0234-1.2149,1.9004-1.2919,1.7588-1.4639,1.7363-1.6387,1.583-1.6592,1.4502-1.7988,1.3252-1.8096,1.1553-141.1679,81.5098-1.9151,1.0068-2.0556,.8955-2.1104,.7412-2.167,.5801-2.2646,.4326-2.1983,.209-2.1992,.1035-2.2475-.1035-2.2017-.209-2.2612-.4326-2.1675-.5801-2.1138-.7412-2.0825-.9043-1.9351-1.0527L23.8985,309.1744l-1.8116-1.1573-1.7988-1.3252-1.6938-1.4804-1.5547-1.5557-1.482-1.6924-1.3559-1.8437-1.1641-1.9053-1.0405-1.9746-.895-2.0557-.7398-2.1123-.5805-2.165-.419-2.1992-.2622-2.1954-.1006-2.1396V120.2803l.1006-2.1787,.2632-2.2134,.4204-2.1562,.5728-2.1319,.7451-2.1806,.9087-2.0323,1.0278-1.9521,1.1636-1.9014,1.355-1.8437,1.4824-1.6958,1.5537-1.5528,1.6948-1.4838,1.8018-1.3243,1.809-1.1543L165.1519,12.9463l1.7993-.9741,2.0825-.9067,2.1138-.7422,2.1675-.5801,2.2006-.418,2.2603-.2685,2.248-.0542,2.2027,.0542,2.2578,.2685,2.2031,.418,2.167,.5801,2.1123,.7422,2.0537,.895,1.9131,1.0078,141.1699,81.5107,1.8077,1.1543,1.8007,1.3252,1.6592,1.4532,1.6387,1.5825,1.4639,1.7348,1.29,1.7593,1.2168,1.898,1.0518,2.0009,.9091,2.0323,.7451,2.1816,.5713,2.1294,.4356,2.2217,.209,2.2143,.0996,2.1128v163.0952Z"/><path class="b" d="M345.1944,116.7481l-.3448-1.7652-.4736-1.7656-.6025-1.7656-.7325-1.6372-.8603-1.6353-.9932-1.5493-1.0752-1.4643-1.1631-1.3789-1.3349-1.292-1.3799-1.2061-1.4619-1.0762-1.5518-.9897L192.2539,17.8277l-1.6386-.8614-1.6788-.7314-1.7226-.6055-1.7656-.4726-1.8096-.3438-1.8076-.2143-1.8091-.045-1.8525,.045-1.8091,.2143-1.8086,.3438-1.7652,.4726-1.7231,.6055-1.6797,.7314-1.5932,.8614L26.7803,99.2227l-1.5513,.9897-1.4638,1.0762-1.3789,1.2061-1.2915,1.292-1.2056,1.3789-1.0777,1.4643-.9477,1.5493-.8608,1.6353-.732,1.6372-.604,1.7656-.4726,1.7656-.3448,1.7652-.2148,1.811-.0864,1.8501v162.8335l.0864,1.8086,.2148,1.8076,.3448,1.8096,.4726,1.7656,.604,1.7207,.732,1.6826,.8608,1.6338,.9477,1.5508,1.0777,1.4658,1.2056,1.377,1.2915,1.2929,1.3789,1.2042,1.4638,1.0781,1.5513,.9892,141.0103,81.3955,1.5932,.8623,1.6797,.7295,1.7231,.6055,1.7652,.4727,1.8086,.3427,1.8091,.1719,1.8525,.0869,1.8091-.0869,1.8076-.1719,1.8096-.3427,1.7656-.4727,1.7226-.6055,1.6788-.7295,1.6386-.8623,140.9668-81.3955,1.5518-.9892,1.4619-1.0781,1.3799-1.2042,1.3349-1.2929,1.1631-1.377,1.0752-1.4658,.9932-1.5508,.8603-1.6338,.7325-1.6826,.6025-1.7207,.4736-1.7656,.3448-1.8096,.1718-1.8076,.0869-1.8086V120.4092l-.0869-1.8501-.1718-1.811Zm-173.313-15.4668l1.3545-.7354,1.4414-.559,1.4995-.4405,1.5005-.2944,1.5298-.1465h1.5581l1.5278,.1465,1.5312,.2944,1.4707,.4405,1.4424,.559,1.3809,.7354,43.0952,24.8833,1.3506,.853,1.2666,1.0293,1.1475,1.1172,1.0302,1.2358,.9102,1.3233,.7949,1.4116,.6172,1.4717,.4717,1.5283,.3506,1.5894,.1474,1.5869,.0303,1.6181-.1777,1.6182-.292,1.5581-.4717,1.5591-35.7398,100.6181-.6464,1.501-.7657,1.4405-.9101,1.3535-1.0586,1.2636-1.1475,1.1475-1.2949,1.0303-1.3828,.8828-7.3252,4.2334-1.3809,.707-1.4424,.5879-1.4707,.4111-1.5312,.295-1.5278,.1464h-1.5581l-1.5298-.1464-1.5005-.295-1.4995-.4111-1.4414-.5879-1.3545-.707-7.3531-4.2334-1.3823-.8828-1.2637-1.0303-1.1787-1.1475-1.0288-1.2636-.9419-1.3535-.7631-1.4405-.6192-1.501-35.7681-100.6181-.4404-1.5591-.3242-1.5581-.1465-1.6182v-1.6181l.1758-1.5869,.3232-1.5894,.4707-1.5283,.6475-1.4717,.7651-1.4116,.9112-1.3233,1.0302-1.2358,1.1763-1.1172,1.2344-1.0293,1.353-.853,43.1226-24.8833ZM82.5493,245.4019l-.6176-.4111-.5879-.4424-.5606-.4707-.5586-.501-.4995-.5283-.5-.5586-.4414-.5596-.4414-.5879-.3818-.6181-.3824-.6465-.3242-.6465-.3217-.6787-.2662-.7041-.2358-.6778-.2051-.705-.1465-.7364-.1191-.705-.1172-.7354-.0283-.7353-.0303-.7354v-71.2651l24.8262,69.8833,.3818,1.1757,.2652,1.2061,.206,1.2061,.0874,1.2353v1.2354l-.0874,1.2353-.206,1.2061-.2652,1.206-.3818,1.1758-3.9414,11.0889-13.5015-7.8233-.6177-.3818Zm10.5894,79.1758l-1.353-.8828-1.2657-.9971-1.1469-1.1172-1.0283-1.2363-.9122-1.3252-.7656-1.4102-.6474-1.5-.4703-1.5293-.3242-1.5595-.1758-1.6172v-1.6182l.1465-1.5879,.2945-1.5879,.4707-1.5293,20.3857-57.3545,15.2944,43.0889-5.3237,15-.4409,1.4717-.3233,1.499-.1474,1.501-.0293,1.5283,.1172,1.5293,.2646,1.501,.4107,1.4707,.561,1.4121,.6753,1.3808,.7939,1.294,20.9146,30.707-45.9751-26.5312Zm181.813-13.1748l-.1768,1.6172-.3222,1.5595-.501,1.5293-.6162,1.5-.7657,1.4102-.913,1.3252-1.0586,1.2363-1.1475,1.1172-1.2646,.9971-1.3526,.8828-45.9751,26.5312,20.9429-30.707,.7959-1.294,.6767-1.3808,.5284-1.4121,.4101-1.4707,.2647-1.501,.1181-1.5293v-1.5283l-.1767-1.501-.292-1.499-.4424-1.4717-5.3535-15,15.3252-43.0889,20.3848,57.3545,.4404,1.5293,.3232,1.5879,.1475,1.5879v1.6182Zm9.2666-78.3848l-.0303,.4717v.4697l-.0586,.4707-.0273,.4424-.0899,.4707-.0888,.4678-.0889,.4433-.1172,.4707-.1162,.4395-.1484,.4433-.1475,.4405-.1475,.4394-.205,.4424-.1768,.4424-.2061,.4101-.2334,.4122-.2373,.4121-.2363,.3818-.2646,.3818-.2637,.3838-.2939,.3819-.295,.3535-.292,.3525-.3252,.3526-.3232,.3525-.3516,.3232-.3535,.295-.3535,.2949-.3516,.293-.3837,.2959-.3838,.2636-.4092,.2354-.3848,.2353-13.5293,7.8233-3.9424-11.0889-.3535-1.1758-.292-1.206-.1767-1.2061-.0889-1.2353v-1.2354l.0889-1.2353,.1767-1.2061,.292-1.2061,.3535-1.1757,24.8565-69.8833v71.2651Zm9.7368-121.0015l-.2959,1.5884-.4697,1.5298-56.6236,159.3833-.6464,1.502-.7657,1.4394-.9101,1.3535-1.0606,1.2656-1.1474,1.1465-1.293,1.0303-1.3535,.8828-41.271,23.8242-1.3809,.7051-1.4424,.5879-1.4707,.4395-1.5312,.2959-1.5278,.1474h-1.5581l-1.5298-.1474-1.5005-.2959-1.4995-.4395-1.4414-.5879-1.3545-.7051-41.2681-23.8242-1.3833-.8828-1.2646-1.0303-1.1763-1.1465-1.0293-1.2656-.9414-1.3535-.7656-1.4394-.6182-1.502L66.7827,115.1348l-.4419-1.5298-.3232-1.5884-.1465-1.5879v-1.6171l.1758-1.5884,.3242-1.5889,.4702-1.5288,.648-1.4995,.7637-1.4131,.9126-1.3232,1.0297-1.2354,1.1758-1.1177,1.2359-1,1.353-.8823,74.6264-43.0893-39.8281,58.4707-.7944,1.2959-.6777,1.352-.5293,1.4419-.4102,1.4702-.2656,1.4995-.1187,1.5303v1.5298l.1768,1.4995,.2944,1.4995,.44,1.4707,44.6235,125.5313,.6191,1.5019,.794,1.4395,.9111,1.3808,1.0288,1.2373,1.1778,1.1465,1.2944,1.0283,1.3525,.8848,13.2066,7.6162,1.3545,.7051,1.4414,.5889,1.4995,.4414,1.5005,.2929,1.5298,.1475h1.5581l1.5278-.1475,1.5312-.2929,1.4707-.4414,1.4424-.5889,1.3809-.7051,13.1777-7.6162,1.3848-.8848,1.2646-1.0283,1.1748-1.1465,1.0606-1.2373,.9111-1.3808,.7656-1.4395,.6163-1.5019,44.6235-125.5313,.4414-1.4707,.3232-1.4995,.1475-1.4995,.0283-1.5298-.1474-1.5303-.2647-1.4995-.3808-1.4702-.5577-1.4419-.6777-1.352-.7959-1.2959-39.8276-58.4707,74.6264,43.0893,1.3535,.8823,1.2652,1,1.1474,1.1177,1.0293,1.2354,.9112,1.3232,.7929,1.4131,.6192,1.4995,.4707,1.5288,.3535,1.5889,.1475,1.5884,.0273,1.6171-.1748,1.5879Z"/></g></svg>